<?xml version="1.0" standalone="no"?>
<!DOCTYPE svg PUBLIC "-//W3C//DTD SVG 20010904//EN"
 "http://www.w3.org/TR/2001/REC-SVG-20010904/DTD/svg10.dtd">
<svg version="1.0" xmlns="http://www.w3.org/2000/svg"
 width="109.000000pt" height="57.000000pt" viewBox="0 0 109.000000 57.000000"
 preserveAspectRatio="xMidYMid meet">

<g transform="translate(0.000000,57.000000) scale(0.100000,-0.100000)"
fill="#000000" stroke="none">
<path d="M122 468 c-16 -50 -24 -210 -17 -294 11 -115 53 -142 69 -43 13 85
40 91 66 13 18 -52 45 -69 69 -40 15 18 1 71 -30 110 l-20 26 25 53 c27 55 51
159 42 183 -12 31 -24 10 -39 -68 -17 -86 -51 -164 -79 -182 -9 -5 -19 -8 -21
-6 -2 3 1 56 6 118 11 129 3 162 -37 162 -19 0 -27 -7 -34 -32z"/>
<path d="M642 465 c-98 -82 -104 -317 -8 -363 59 -29 126 13 126 80 0 57 -29
82 -88 75 l-45 -5 7 70 c14 156 72 186 75 40 1 -39 3 -43 24 -40 20 3 22 8 22
57 -1 47 -5 57 -33 82 -39 35 -43 35 -80 4z m62 -241 c28 -27 11 -94 -23 -94
-38 0 -54 60 -24 92 20 22 27 22 47 2z"/>
<path d="M812 458 c-30 -94 -26 -189 9 -227 14 -15 32 -21 59 -21 l40 0 0 -49
c0 -50 18 -78 44 -68 14 6 23 104 28 297 2 79 0 95 -13 98 -28 5 -39 -23 -48
-133 -6 -70 -14 -111 -23 -116 -19 -12 -24 -11 -39 8 -10 11 -14 48 -14 127 0
95 -2 111 -17 114 -11 2 -19 -7 -26 -30z"/>
<path d="M415 303 c-45 -5 -71 -21 -56 -36 14 -14 171 2 171 18 0 11 -51 28
-69 23 -3 -1 -24 -3 -46 -5z"/>
</g>
</svg>
