<svg xmlns="http://www.w3.org/2000/svg" width="25" height="25" viewBox="0 0 25 25" fill="none">
  <g clip-path="url(#clip0_1_26)">
    <path d="M15.6163 14.5H14.8263L14.5463 14.23C15.7463 12.83 16.3663 10.92 16.0263 8.89002C15.5563 6.11002 13.2363 3.89002 10.4363 3.55002C6.20635 3.03002 2.64635 6.59001 3.16635 10.82C3.50635 13.62 5.72635 15.94 8.50635 16.41C10.5363 16.75 12.4463 16.13 13.8463 14.93L14.1163 15.21V16L18.3663 20.25C18.7763 20.66 19.4463 20.66 19.8563 20.25C20.2663 19.84 20.2663 19.17 19.8563 18.76L15.6163 14.5ZM9.61635 14.5C7.12635 14.5 5.11635 12.49 5.11635 10C5.11635 7.51002 7.12635 5.50002 9.61635 5.50002C12.1063 5.50002 14.1163 7.51002 14.1163 10C14.1163 12.49 12.1063 14.5 9.61635 14.5Z" fill="#BDBDBD"/>
  </g>
  <defs>
    <clipPath id="clip0_1_26">
      <rect width="24" height="24" fill="white" transform="translate(0.116333 0.5)"/>
    </clipPath>
  </defs>
</svg>